<?xml version="1.0" encoding="UTF-8"?>
<svg id="Layer_1" data-name="Layer 1" xmlns="http://www.w3.org/2000/svg" viewBox="0 0 62 62">
  <defs>
    <style>
      .cls-1 {
        fill: #1d4267;
      }

      .cls-1, .cls-2, .cls-3, .cls-4, .cls-5, .cls-6 {
        stroke-width: 0px;
      }

      .cls-2 {
        fill: #ed2a2c;
      }

      .cls-3 {
        fill: #fdc932;
      }

      .cls-4 {
        fill: #3b78b3;
      }

      .cls-5 {
        fill: #af2024;
      }

      .cls-6 {
        fill: #fcfcfd;
      }
    </style>
  </defs>
  <g>
    <path class="cls-4" d="M12.78,21.86c-.1-.5-.21-.99-.33-1.58,1.51.19,2.87.51,4.22.9,4.48,1.31,8.63,3.31,12.55,5.81.14.09.26.2.38.31-.01,4.45-.02,8.89-.03,13.34-.51-.33-1.02-.66-1.53-.98-.05-.1-.06-.24-.14-.3-1.95-1.55-4.08-2.83-6.34-3.88-1.89-.87-3.83-1.64-5.84-2.18-.36-.1-.56-.29-.63-.65-.76-3.59-1.53-7.18-2.3-10.77ZM27.02,29.47c0-.2-.15-.35-.57-.6-2.61-1.51-5.35-2.7-8.24-3.57-.36-.11-.72-.22-1.08-.32-.28-.08-.53-.05-.63.26-.1.3.1.49.35.6.13.06.27.09.4.13,2.73.79,5.36,1.83,7.89,3.14.44.23.88.45,1.33.65.3.13.49.02.55-.29ZM26.64,33.75c.56-.57.54-.75-.05-1.1-.24-.14-.5-.26-.75-.4-2.52-1.39-5.16-2.48-7.94-3.23-.31-.08-.58-.11-.7.24-.1.32.15.47.39.57.19.08.4.14.6.2,2.51.72,4.92,1.71,7.23,2.93.41.22.85.39,1.2.79Z"/>
    <path class="cls-2" d="M32.28,27.35c2.79-1.94,5.79-3.48,8.93-4.75,2.2-.89,4.45-1.62,6.79-2.07.45-.09.91-.01,1.42-.26-.14.59-.36,1.07-.33,1.58,0,.16,0,.33-.03.49-.68,3.3-1.38,6.59-2.04,9.89-.12.6-.39.92-.99,1.09-3.92,1.14-7.65,2.68-10.96,5.14-.41.3-.84.58-1.1,1.05-.48.49-1.08.8-1.66,1.15,0-.38-.01-.75-.01-1.13,0-4.06,0-8.12-.01-12.18ZM35.3,29.84c.18-.08.37-.16.56-.26,2.42-1.28,4.89-2.45,7.54-3.23.58-.17,1.17-.32,1.74-.55.25-.1.46-.29.34-.6-.1-.26-.32-.32-.58-.25-.14.04-.27.07-.41.11-3.22.87-6.22,2.25-9.12,3.86-.14.08-.3.17-.38.3-.21.33-.04.52.32.61ZM44.06,28.99c-.77.24-1.64.51-2.51.79-2.17.72-4.21,1.71-6.21,2.79-.31.17-.69.39-.46.81.25.45.58.07.83-.07,2.58-1.43,5.3-2.48,8.11-3.34.2-.06.41-.12.59-.21.18-.09.3-.25.23-.46-.07-.22-.23-.34-.59-.31Z"/>
    <path class="cls-2" d="M41.94,20.39c.48-1.19.77-2.35.49-3.6-.61-2.75-3.35-4.24-5.98-3.24-1.6.61-2.76,1.75-3.83,3.03-.6.72-1.12,1.5-1.65,2.35-.91-1.36-1.8-2.65-2.94-3.73-.58-.55-1.2-1.05-1.93-1.4-3.31-1.61-6.65.53-6.65,4.21,0,.85.39,1.55.56,2.39-1.28-.39-2.52-.78-3.77-1.15-.25-.07-.23-.25-.25-.44-.43-3.33,1.5-7.01,4.45-8.46,3.08-1.51,6.68-.88,9.22,1.64.45.44.86.92,1.32,1.41.74-.89,1.52-1.73,2.49-2.37,2.81-1.86,5.74-2.09,8.63-.33,2.97,1.81,4.12,4.63,3.9,8.05-.01.23-.06.39-.32.47-1.23.37-2.45.76-3.73,1.16Z"/>
    <path class="cls-5" d="M33.97,39.51c.26-.46.69-.74,1.1-1.05,3.3-2.45,7.04-4,10.96-5.14.6-.17.87-.49.99-1.09.66-3.3,1.36-6.59,2.04-9.89.03-.16.02-.33.03-.49.93-.07,1.81-.44,2.83-.46-.3,1.47-.58,2.88-.88,4.3-.54,2.62-1.11,5.23-1.63,7.86-.09.44-.29.62-.7.72-3.91.92-7.77,1.98-11.46,3.59-.94.41-1.81.96-2.73,1.43-.18.09-.32.29-.56.22Z"/>
    <path class="cls-1" d="M12.78,21.86c.77,3.59,1.54,7.18,2.3,10.77.08.37.28.56.63.65,2.02.54,3.95,1.31,5.84,2.18,2.26,1.05,4.39,2.33,6.34,3.88.08.06.09.2.14.3-4.53-2.71-9.53-4.14-14.61-5.33-.58-.14-.85-.36-.97-.97-.72-3.59-1.49-7.18-2.24-10.77q-.27-1.28,1.05-1.02c.51.1,1.01.2,1.52.3Z"/>
    <path class="cls-3" d="M32.28,27.35c0,4.06,0,8.12.01,12.18,0,.38,0,.75.01,1.13-.05.05-.09.11-.14.15q-1.33,1-2.59-.17c.01-4.45.02-8.89.03-13.34.88.73,1.77.83,2.68.04Z"/>
    <path class="cls-6" d="M27.02,29.47c-.06.3-.25.42-.55.29-.45-.2-.89-.42-1.33-.65-2.53-1.31-5.16-2.35-7.89-3.14-.13-.04-.27-.07-.4-.13-.26-.11-.45-.3-.35-.6.1-.31.35-.34.63-.26.36.11.72.22,1.08.32,2.89.87,5.63,2.06,8.24,3.57.42.24.57.4.57.6Z"/>
    <path class="cls-6" d="M26.64,33.75c-.35-.4-.79-.58-1.2-.79-2.31-1.22-4.72-2.21-7.23-2.93-.2-.06-.41-.12-.6-.2-.25-.1-.49-.25-.39-.57.11-.35.39-.32.7-.24,2.78.75,5.42,1.84,7.94,3.23.25.14.5.26.75.4.59.35.61.52.05,1.1Z"/>
    <path class="cls-6" d="M35.3,29.84c-.36-.1-.53-.28-.32-.61.08-.13.24-.23.38-.3,2.9-1.61,5.91-2.99,9.12-3.86.14-.04.27-.07.41-.11.26-.07.48,0,.58.25.12.31-.09.5-.34.6-.56.23-1.16.38-1.74.55-2.65.77-5.11,1.94-7.54,3.23-.19.1-.38.18-.56.26Z"/>
    <path class="cls-6" d="M44.06,28.99c.36-.03.52.09.59.31.07.21-.06.37-.23.46-.19.09-.39.15-.59.21-2.81.86-5.54,1.91-8.11,3.34-.26.14-.58.52-.83.07-.24-.42.15-.64.46-.81,2-1.08,4.05-2.08,6.21-2.79.87-.29,1.74-.55,2.51-.79Z"/>
  </g>
  <g>
    <path class="cls-2" d="M7.39,46.62h2.82c1.44,0,2.19.6,2.19,1.5,0,.58-.29,1.02-.76,1.27.64.21,1.05.7,1.05,1.43,0,1-.79,1.58-2.31,1.58h-2.99v-5.78ZM10.05,48.99c.65,0,1.01-.23,1.01-.69s-.35-.68-1.01-.68h-1.33v1.36h1.33ZM10.28,51.39c.69,0,1.06-.21,1.06-.71s-.37-.72-1.06-.72h-1.56v1.43h1.56Z"/>
    <path class="cls-2" d="M13.78,46.62h1.34v5.78h-1.34v-5.78Z"/>
    <path class="cls-2" d="M16.2,49.51c0-1.74,1.34-2.99,3.18-2.99,1.02,0,1.86.35,2.42,1l-.86.79c-.42-.45-.91-.65-1.49-.65-1.12,0-1.89.75-1.89,1.85s.77,1.85,1.87,1.85c.36,0,.71-.07,1.04-.24v-1.7h1.22v2.34c-.64.48-1.51.73-2.34.73-1.82,0-3.15-1.25-3.15-2.99Z"/>
    <path class="cls-2" d="M29.37,50.03h-2.63v2.37h-1.34v-5.78h1.34v2.28h2.63v-2.28h1.34v5.78h-1.34v-2.37Z"/>
    <path class="cls-2" d="M32.16,46.62h4.37v1.07h-3.04v1.25h2.68v1.04h-2.68v1.34h3.15v1.07h-4.47v-5.78Z"/>
    <path class="cls-2" d="M39.59,46.62h1.32l2.58,5.78h-1.4l-.51-1.24h-2.68l-.51,1.24h-1.37l2.58-5.78ZM41.15,50.15l-.92-2.2-.92,2.2h1.84Z"/>
    <path class="cls-2" d="M44.17,46.62h2.47c1.61,0,2.54.8,2.54,2.1,0,.87-.43,1.5-1.18,1.82l1.29,1.86h-1.44l-1.11-1.61h-1.23v1.61h-1.34v-5.78ZM46.6,49.73c.82,0,1.23-.38,1.23-1.01s-.41-1.01-1.23-1.01h-1.09v2.01h1.09Z"/>
    <path class="cls-2" d="M51.42,47.71h-1.85v-1.09h5.04v1.09h-1.85v4.69h-1.34v-4.69Z"/>
  </g>
</svg>